<svg viewBox="0 0 333 222" fill="none" xmlns="http://www.w3.org/2000/svg"><path d="M111.19 128.058H74.9727C74.0848 128.058 73.3236 127.295 73.3236 126.406V110.645C73.3236 109.755 74.0848 108.992 74.9727 108.992H111.19C112.078 108.992 112.84 109.755 112.84 110.645V126.406C112.84 127.359 112.142 128.058 111.19 128.058Z" fill="#EBF2F4"/><path d="M91.4639 102.001H55.1827C54.2947 102.001 53.5336 101.239 53.5336 100.349V84.5882C53.5336 83.6984 54.2947 82.9358 55.1827 82.9358H91.4004C92.2884 82.9358 93.0496 83.6984 93.0496 84.5882V100.349C93.113 101.302 92.3519 102.001 91.4639 102.001Z" fill="#EBF2F4"/><path d="M249.338 86.7489H227.391L218.828 120.686H249.338V86.7489Z" fill="#3D93CF"/><path d="M210.773 120.686H220.478L229.548 86.7489H220.034C219.399 86.7489 218.828 87.1938 218.702 87.7657L210.075 119.796C209.948 120.241 210.329 120.686 210.773 120.686Z" fill="#43ADE1"/><path d="M190.603 0H149.184V196.949H190.603V0Z" fill="#CFE2E7"/><path d="M291.391 0H324.881C329.321 0 333 3.62248 333 8.1347V214.489H291.391V0Z" fill="#CFE2E7"/><path d="M137.83 4.06735V214.489H149.184V132.125H280.101V214.489H291.454V132.125V120.749V71.687V60.3747V11.3759V0H284.16H149.184H143.983H141.89C139.67 0 137.83 1.84302 137.83 4.06735ZM280.101 60.3747H149.184V11.3759H280.101V60.3747ZM149.184 120.813V71.7506H280.101V120.813H149.184Z" fill="#EBF2F4"/><path d="M240.648 20.7816H217.687L207.729 60.3746H240.648V20.7816Z" fill="#F9BA15"/><path d="M205.572 60.3746H209.631L220.224 20.7816H216.355C215.594 20.7816 214.959 21.29 214.769 21.989L204.747 59.3578C204.62 59.8662 205.001 60.3746 205.572 60.3746Z" fill="#FDD204"/><path d="M260.438 17.0321H233.037V60.4383H260.438V17.0321Z" fill="#A34343"/><path d="M225.933 60.3748H233.037V17.0321H225.933C224.601 17.0321 223.522 18.1125 223.522 19.4471V57.9598C223.522 59.2944 224.601 60.3748 225.933 60.3748Z" fill="#D53F3F"/><path d="M228.28 52.9393C228.724 52.9393 229.104 52.5579 229.104 52.1131V25.2304C229.104 24.7856 228.724 24.4043 228.28 24.4043C227.836 24.4043 227.455 24.7856 227.455 25.2304V52.1131C227.455 52.5579 227.836 52.9393 228.28 52.9393Z" fill="#A34343"/><path d="M280.037 17.0321H252.636V60.4383H280.037V17.0321Z" fill="#3D93CF"/><path d="M245.596 60.3748H252.636V17.0321L245.659 17.0956C244.327 17.0956 243.249 18.176 243.249 19.5106L243.185 57.9598C243.122 59.2944 244.2 60.3748 245.596 60.3748Z" fill="#43ADE1"/><path d="M247.879 52.939C248.323 52.939 248.703 52.5576 248.703 52.1128V25.2301C248.703 24.7853 248.323 24.404 247.879 24.404C247.435 24.404 247.054 24.7853 247.054 25.2301V52.1128C247.054 52.5576 247.435 52.939 247.879 52.939Z" fill="#3D93CF"/><path d="M267.478 81.22H244.517L234.559 120.686H267.478V81.22Z" fill="#4C4C4C"/><path d="M229.231 120.686H236.525L247.054 81.22H239.95C239.189 81.22 238.555 81.7284 238.365 82.4275L228.406 119.669C228.279 120.178 228.66 120.686 229.231 120.686Z" fill="#656161"/><path d="M280.037 77.2798H258.471V120.686H280.037V77.2798Z" fill="#38B000"/><path d="M258.471 77.2798V120.686H246.991C246.103 120.686 245.342 119.987 245.342 119.034V78.9321C245.342 78.0424 246.04 77.2798 246.991 77.2798H258.471Z" fill="#50C800"/><path d="M251.938 114.776C252.763 114.776 253.397 114.14 253.397 113.314V94.884C253.397 94.0578 252.763 93.4223 251.938 93.4223C251.114 93.4223 250.48 94.0578 250.48 94.884V113.314C250.48 114.14 251.114 114.776 251.938 114.776Z" fill="#38B000"/><path d="M251.938 90.0539C253.83 90.0539 255.363 88.5174 255.363 86.6221C255.363 84.7267 253.83 83.1902 251.938 83.1902C250.047 83.1902 248.513 84.7267 248.513 86.6221C248.513 88.5174 250.047 90.0539 251.938 90.0539Z" fill="#38B000"/><path d="M20.8046 208.007H0V214.489H20.8046V208.007Z" fill="#4C4C4C"/><path d="M333 208.388H319.68V214.68H333V208.388Z" fill="#4C4C4C"/><path d="M223.142 137.972H212.232V139.815C199.356 144.391 190.095 156.72 190.095 171.083V208.325H256.125V171.083C256.125 152.843 241.282 137.972 223.142 137.972Z" fill="#4C4C4C"/><path d="M245.215 208.325V171.083C245.215 152.907 230.373 137.972 212.169 137.972C193.965 137.972 179.186 152.843 179.186 171.083V208.325H245.215Z" fill="#656161"/><path d="M167.959 145.726C161.933 143.946 155.654 147.378 153.878 153.352L148.74 170.638L170.623 176.485L175.57 159.771C177.346 153.86 173.921 147.505 167.959 145.726Z" fill="#F9BA15"/><path d="M148.74 170.702L144.871 183.793C144.744 184.175 144.363 184.429 143.983 184.365C138.655 183.476 104.467 177.756 101.359 177.438C97.9337 177.121 86.6435 176.739 80.5543 184.556C79.3492 186.145 79.476 188.56 81.0617 189.831C81.7595 190.339 82.5206 190.594 83.3452 190.594C84.4235 190.594 85.5652 190.085 86.2629 189.132C87.0875 188.052 88.356 186.908 89.4343 186.336C89.4977 186.336 89.688 186.272 89.8149 186.399C90.0052 186.526 89.688 186.908 89.688 186.908C87.5315 189.577 85.7555 193.072 85.4383 197.584C85.3115 199.554 86.8337 201.27 88.8635 201.397H88.9903C90.9566 201.525 92.6057 199.999 92.7326 197.966C92.8595 196.123 93.4303 194.534 94.1915 193.136C94.2549 193.072 94.3183 193.009 94.4452 193.072C94.6989 193.136 94.572 193.453 94.572 193.453C94.2549 195.042 94.2549 196.885 94.6355 198.983C94.9526 200.698 96.4749 201.969 98.1875 201.969C98.6949 201.969 99.2023 201.842 99.7097 201.652C101.295 200.953 102.057 199.237 101.803 197.521C101.739 197.076 101.676 196.695 101.676 196.313L143.349 207.626C144.871 208.007 146.457 208.261 147.979 208.261C155.781 208.261 162.948 203.05 165.105 195.233L170.623 176.612L148.74 170.702Z" fill="#8D4D2A"/><path d="M191.237 136.256L162.504 144.836C156.986 146.488 153.243 151.509 153.243 157.292L151.594 208.388H191.237H229.231V157.292C229.231 151.572 225.489 146.488 219.97 144.836L191.237 136.256Z" fill="#FDD204"/><path d="M170.686 105.433C182.036 105.433 191.237 96.2146 191.237 84.8425C191.237 73.4704 182.036 64.2516 170.686 64.2516C159.336 64.2516 150.135 73.4704 150.135 84.8425C150.135 96.2146 159.336 105.433 170.686 105.433Z" fill="#231F20"/><path d="M213.31 124.118C224.66 124.118 233.861 114.899 233.861 103.527C233.861 92.1547 224.66 82.9358 213.31 82.9358C201.96 82.9358 192.759 92.1547 192.759 103.527C192.759 114.899 201.96 124.118 213.31 124.118Z" fill="#231F20"/><path d="M185.592 86.6855C196.942 86.6855 206.143 77.4666 206.143 66.0946C206.143 54.7225 196.942 45.5036 185.592 45.5036C174.242 45.5036 165.041 54.7225 165.041 66.0946C165.041 77.4666 174.242 86.6855 185.592 86.6855Z" fill="#231F20"/><path d="M208.807 102.574C222.469 102.574 233.544 91.4769 233.544 77.7883C233.544 64.0996 222.469 53.0028 208.807 53.0028C195.145 53.0028 184.07 64.0996 184.07 77.7883C184.07 91.4769 195.145 102.574 208.807 102.574Z" fill="#231F20"/><path d="M215.276 105.434V91.3885C215.276 76.4537 203.098 64.3152 188.256 64.3152C173.414 64.3152 161.235 76.5172 161.235 91.3885V105.434H215.276Z" fill="#50C800"/><path d="M205.382 143.438V140.451L191.237 136.256L179.249 139.815V152.335C179.249 155.259 181.66 157.61 184.577 157.61C185.465 157.61 186.29 157.419 187.051 156.974L201.766 149.285C203.986 148.141 205.382 145.916 205.382 143.438Z" fill="white"/><path d="M182.484 116.809V152.335C182.484 153.86 184.197 154.877 185.592 154.178L200.307 146.488C201.449 145.916 202.147 144.709 202.147 143.438V116.809H182.484Z" fill="#8D4D2A"/><path d="M155.4 107.531C156.605 112.043 161.362 114.712 165.929 113.505C170.496 112.297 173.223 107.658 172.018 103.146C170.813 98.6335 166.056 95.9643 161.489 97.1718C156.922 98.3793 154.195 103.019 155.4 107.531Z" fill="#8D4D2A"/><path d="M155.4 107.531C156.605 112.043 161.362 114.712 165.929 113.505C170.496 112.297 173.223 107.658 172.018 103.146C170.813 98.6335 166.056 95.9643 161.489 97.1718C156.922 98.3793 154.195 103.019 155.4 107.531Z" fill="#8D4D2A"/><path d="M201.576 107.531C202.781 112.043 207.538 114.712 212.105 113.505C216.672 112.297 219.463 107.658 218.194 103.146C216.989 98.6335 212.232 95.9643 207.665 97.1718C203.098 98.3793 200.371 103.019 201.576 107.531Z" fill="#8D4D2A"/><path d="M161.109 108.992C159.396 108.992 157.937 110.39 157.937 112.106C157.937 113.822 159.333 115.22 161.109 115.22V108.992Z" fill="#FDD204"/><path d="M210.076 94.6932C210.076 81.2201 199.039 70.162 185.592 70.162C172.145 70.162 161.109 81.1565 161.109 94.6932V118.208C161.109 124.563 164.597 130.473 170.179 133.524L175.19 136.256C181.723 139.815 189.588 139.815 196.121 136.256L201.132 133.524C206.714 130.473 210.202 124.626 210.202 118.208L210.076 94.6932Z" fill="#A46644"/><path d="M171.765 113.632C170.433 113.632 169.418 112.615 169.418 111.344V104.544C169.418 103.273 170.433 102.256 171.701 102.256H171.765C173.033 102.256 174.048 103.273 174.048 104.544V111.28C174.048 112.551 173.033 113.632 171.765 113.632Z" fill="#723D26"/><path d="M187.812 113.632C186.48 113.632 185.465 112.615 185.465 111.344V104.544C185.465 103.273 186.48 102.256 187.749 102.256H187.812C189.081 102.256 190.095 103.273 190.095 104.544V111.28C190.159 112.551 189.081 113.632 187.812 113.632Z" fill="#723D26"/><path d="M179.186 116.555H179.122C177.283 116.555 175.761 115.03 175.761 113.187V104.862C175.761 103.019 177.283 101.493 179.122 101.493H179.186C181.025 101.493 182.548 103.019 182.548 104.862V113.251C182.548 115.03 181.025 116.555 179.186 116.555Z" fill="#8D4D2A"/><path d="M210.075 115.157C211.827 115.157 213.247 113.763 213.247 112.043C213.247 110.323 211.827 108.929 210.075 108.929C208.324 108.929 206.904 110.323 206.904 112.043C206.904 113.763 208.324 115.157 210.075 115.157Z" fill="#FDD204"/><path d="M200.434 114.966H186.036C184.133 114.966 182.547 113.377 182.547 111.471V99.3324C182.547 97.4258 184.133 95.837 186.036 95.837H200.434C202.337 95.837 203.923 97.4258 203.923 99.3324V111.534C203.923 113.441 202.337 114.966 200.434 114.966ZM186.036 97.5529C185.085 97.5529 184.323 98.3155 184.323 99.2688V111.471C184.323 112.424 185.085 113.187 186.036 113.187H200.434C201.386 113.187 202.147 112.424 202.147 111.471V99.3324C202.147 98.3791 201.386 97.6164 200.434 97.6164H186.036V97.5529Z" fill="#231F20"/><path opacity="0.25" d="M186.036 97.5528C185.085 97.5528 184.324 98.3154 184.324 99.2687V111.471C184.324 112.424 185.085 113.187 186.036 113.187H200.434C201.386 113.187 202.147 112.424 202.147 111.471V99.3323C202.147 98.379 201.386 97.6163 200.434 97.6163H186.036V97.5528Z" fill="white"/><path d="M172.335 114.966H162.821C160.918 114.966 159.333 113.377 159.333 111.471V99.3324C159.333 97.4258 160.918 95.837 162.821 95.837H172.335C174.238 95.837 175.824 97.4258 175.824 99.3324V111.534C175.824 113.441 174.238 114.966 172.335 114.966ZM162.821 97.5529C161.87 97.5529 161.109 98.3155 161.109 99.3324V111.534C161.109 112.488 161.87 113.25 162.821 113.25H172.335C173.287 113.25 174.048 112.488 174.048 111.534V99.3324C174.048 98.3791 173.287 97.6164 172.335 97.6164H162.821V97.5529Z" fill="#231F20"/><path opacity="0.25" d="M162.821 97.5528C161.87 97.5528 161.109 98.3154 161.109 99.3323V111.534C161.109 112.488 161.87 113.25 162.821 113.25H172.335C173.287 113.25 174.048 112.488 174.048 111.534V99.3323C174.048 98.379 173.287 97.6163 172.335 97.6163H162.821V97.5528Z" fill="white"/><path d="M184.26 99.4594H174.048V103.527H184.26V99.4594Z" fill="#231F20"/><path d="M185.592 70.162C177.283 70.162 169.862 74.3564 165.422 80.7752C167.451 86.5585 172.97 90.6894 179.439 90.6894C181.025 90.6894 182.547 90.4352 184.006 89.9903C186.797 96.854 193.457 101.684 201.322 101.684C204.494 101.684 207.475 100.858 210.075 99.4596V94.6932C210.075 81.1565 199.039 70.162 185.592 70.162Z" fill="#231F20"/><path d="M200.371 67.175L198.024 69.5264C202.971 74.4835 210.963 74.4835 215.847 69.5264L216.862 68.5096C217.623 67.7469 217.496 66.4759 216.672 65.8404C211.724 62.2814 204.811 62.7263 200.371 67.175Z" fill="#50C800"/><path d="M193.203 55.545C192.442 55.4815 191.745 56.0534 191.745 56.8796V58.7862C191.745 65.7769 197.39 71.4331 204.367 71.4331V68.1284C204.367 61.646 199.483 56.2441 193.203 55.545Z" fill="#50C800"/><path d="M171.321 97.553H167.134C165.612 97.553 164.344 96.282 164.344 94.8203C164.344 93.295 165.612 92.0875 167.134 92.0875H171.321C172.843 92.0875 174.048 93.3586 174.048 94.8203C174.048 96.282 172.843 97.553 171.321 97.553Z" fill="#231F20"/><path d="M176.522 120.622C176.522 120.622 182.294 123.101 190.159 118.589" stroke="#8A5436" stroke-width="2.7454" stroke-linecap="round" stroke-linejoin="round"/><path d="M287.649 193.39H275.597H241.98H240.648V206.99V208.325H241.98H275.597H287.712C288.854 208.325 289.805 207.371 289.805 206.227V195.487C289.742 194.343 288.79 193.39 287.649 193.39Z" fill="#50C800"/><path d="M211.788 194.724C211.788 195.424 212.359 196.059 213.12 196.059H258.345V205.719H213.057C212.359 205.719 211.725 206.291 211.725 207.054C211.725 207.753 212.295 208.388 213.057 208.388H258.789C259.93 208.388 260.882 207.435 260.882 206.291V195.487C260.882 194.343 259.93 193.39 258.789 193.39H213.057C212.359 193.39 211.788 194.025 211.788 194.724Z" fill="#38B000"/><path d="M258.281 195.996H214.008V205.656H258.281V195.996Z" fill="#E9E1E2"/><path d="M258.281 199.237H214.008V202.478H258.281V199.237Z" fill="white"/><path d="M248.513 205.91L246.737 204.257C246.547 204.067 246.293 204.067 246.103 204.257L244.327 205.91C244.01 206.164 243.502 205.973 243.502 205.528V199.237H249.274V205.528C249.338 205.973 248.83 206.164 248.513 205.91Z" fill="#EF4849"/><path d="M283.145 202.478H267.478C266.59 202.478 265.892 201.779 265.892 200.889C265.892 199.999 266.59 199.3 267.478 199.3H283.208C284.096 199.3 284.794 199.999 284.794 200.889C284.794 201.779 284.033 202.478 283.145 202.478Z" fill="#38B000"/><path d="M287.649 178.519H280.545H246.928H245.596V192.119V193.453H246.928H280.545H287.649C288.791 193.453 289.742 192.5 289.742 191.356V180.616C289.742 179.472 288.791 178.519 287.649 178.519Z" fill="#43ADE1"/><path d="M222.571 179.79C222.571 180.552 223.142 181.124 223.903 181.124H263.229V190.848H223.903C223.205 190.848 222.571 191.42 222.571 192.182C222.571 192.881 223.142 193.517 223.903 193.517H263.8C264.941 193.517 265.893 192.564 265.893 191.42V180.616C265.893 179.472 264.941 178.519 263.8 178.519H223.903C223.142 178.519 222.571 179.091 222.571 179.79Z" fill="#3D93CF"/><path d="M263.229 181.124H224.855V190.848H263.229V181.124Z" fill="#E9E1E2"/><path d="M263.229 184.365H224.855V187.607H263.229V184.365Z" fill="white"/><path d="M283.145 187.607H272.426C271.538 187.607 270.84 186.908 270.84 186.018C270.84 185.128 271.538 184.429 272.426 184.429H283.145C284.033 184.429 284.731 185.128 284.731 186.018C284.731 186.908 284.033 187.607 283.145 187.607Z" fill="#3D93CF"/><path d="M175.951 202.096H123.432V208.325H172.525C175.189 208.325 177.346 206.164 177.346 203.495C177.346 202.732 176.712 202.096 175.951 202.096Z" fill="#8EADC9"/><path d="M118.992 150.365H39.3256C37.1691 150.365 35.6468 152.399 36.1542 154.432L49.4742 204.13C50.1085 206.609 52.3919 208.325 54.9291 208.325H134.595C136.752 208.325 138.274 206.291 137.703 204.257L124.447 154.559C123.812 152.081 121.529 150.365 118.992 150.365Z" fill="#8EADC9"/><path d="M114.615 150.365H34.9491C32.7925 150.365 31.2702 152.399 31.8411 154.432L45.0977 204.067C45.7319 206.545 48.0154 208.261 50.5525 208.261H130.219C132.375 208.261 133.898 206.227 133.327 204.194L120.134 154.559C119.436 152.081 117.216 150.365 114.615 150.365Z" fill="#ABC0D8"/><path d="M90.5759 180.171C89.6879 175.277 85.0576 171.337 80.1736 171.337C75.2896 171.337 72.1182 175.277 72.9427 180.171C73.7673 185.064 78.461 189.005 83.345 189.005C88.229 189.005 91.4639 185.001 90.5759 180.171Z" fill="#EBF2F4"/><path d="M220.985 145.853C214.959 144.073 208.68 147.505 206.904 153.479L201.766 170.765L223.649 176.612L228.596 159.898C230.436 153.924 227.011 147.632 220.985 145.853Z" fill="#FDD204"/><path d="M201.766 170.765L197.897 183.857C197.77 184.238 197.39 184.493 197.009 184.429C191.681 183.539 157.493 177.82 154.385 177.502C150.96 177.184 139.733 176.803 133.644 184.62C132.375 186.209 132.566 188.687 134.088 189.895C134.786 190.403 135.547 190.657 136.371 190.657C137.45 190.657 138.591 190.149 139.289 189.196C140.114 188.115 141.382 186.971 142.461 186.399C142.524 186.399 142.714 186.336 142.841 186.463C142.968 186.653 142.714 187.035 142.714 187.035C140.558 189.704 138.782 193.199 138.465 197.712C138.338 199.682 139.86 201.398 141.89 201.525H142.017C143.983 201.652 145.632 200.127 145.759 198.093C145.886 196.25 146.457 194.661 147.218 193.263C147.281 193.199 147.345 193.136 147.471 193.199C147.725 193.263 147.598 193.581 147.598 193.581C147.281 195.169 147.281 197.012 147.662 199.11C147.979 200.826 149.501 202.097 151.214 202.097C151.721 202.097 152.229 201.97 152.736 201.779C154.322 201.08 155.083 199.364 154.829 197.648C154.766 197.203 154.702 196.822 154.702 196.441L196.438 207.689C197.961 208.071 199.546 208.325 201.069 208.325C208.87 208.325 216.038 203.114 218.194 195.297L223.713 176.676L201.766 170.765Z" fill="#A46644"/><path d="M326.53 221.353L6.46971 220.972C2.91771 220.972 0 218.048 0 214.489C0 210.93 2.91771 208.007 6.46971 208.007L326.53 208.388C330.082 208.388 333 211.312 333 214.871C333 218.429 330.082 221.353 326.53 221.353Z" fill="#4C4C4C"/></svg>