<svg width="53" height="64" viewBox="0 0 53 64" version="1.1" xmlns="http://www.w3.org/2000/svg"><title>Emerald</title><g stroke="none" stroke-width="1" fill="none" fill-rule="nonzero"><g><g><g fill="#63A700"><path d="M28.273 4.768l21.456 8.146a4.939 4.939 0 0 1 3.196 4.613v32.92a4.939 4.939 0 0 1-3.196 4.613l-21.456 8.146a4.998 4.998 0 0 1-3.546 0L3.27 55.06a4.939 4.939 0 0 1-3.196-4.613v-32.92a4.939 4.939 0 0 1 3.196-4.613l21.456-8.146a4.998 4.998 0 0 1 3.546 0z"/></g><path d="M32.118 6.228l17.611 6.686a4.939 4.939 0 0 1 3.196 4.613v4.936L15.417 59.671 3.27 55.061a4.939 4.939 0 0 1-3.196-4.614V38.014L32.118 6.228z" fill="#75B11F"/><g fill="#78C900"><path d="M28.273.673L49.73 8.82a4.939 4.939 0 0 1 3.196 4.613v32.92a4.939 4.939 0 0 1-3.196 4.613l-21.456 8.146a4.998 4.998 0 0 1-3.546 0L3.27 50.965a4.939 4.939 0 0 1-3.196-4.613v-32.92a4.939 4.939 0 0 1 3.196-4.613L24.727.673a4.998 4.998 0 0 1 3.546 0z"/></g><path d="M35.103 3.266L49.729 8.82a4.939 4.939 0 0 1 3.196 4.613v9.031L18.402 56.71 3.271 50.965a4.939 4.939 0 0 1-3.196-4.613v-8.338L35.103 3.266z" fill="#88CF1F"/><path d="M26.5 6.14L5.872 13.973v31.84L26.5 53.644l20.628-7.832v-31.84L26.5 6.141zm23.237 2.682a4.916 4.916 0 0 1 3.188 4.587v32.966a4.916 4.916 0 0 1-3.188 4.587L28.28 59.108a5.02 5.02 0 0 1-3.562 0L3.263 50.962a4.916 4.916 0 0 1-3.188-4.587V13.41a4.916 4.916 0 0 1 3.188-4.587L24.72.676a5.02 5.02 0 0 1 3.562 0l21.456 8.146z" fill="#87E003"/></g><path d="M5.872 32.264v13.548L22.88 52.27l-4.477 4.441-15.139-5.748a4.916 4.916 0 0 1-3.188-4.587v-8.36l5.797-5.751zm41.256-4.05V13.972L30.626 7.707l4.477-4.44 14.634 5.555a4.916 4.916 0 0 1 3.188 4.587v9.054l-5.797 5.75z" fill="#95E321"/></g><g><path d="M25.223 19.742l3.282-3.282c2.996-2.996 7.942-2.908 11.047.197 3.105 3.105 3.193 8.05.197 11.047l-8.293 8.293a1.453 1.453 0 0 1-1.066.425l-4.227-.11a.298.298 0 0 0-.219.086.308.308 0 0 0 .008.436l1.82 1.82a.727.727 0 0 1 0 1.027l-1.467 1.467A3.2 3.2 0 0 1 23.38 42l-7.595-1.577-1.577-7.596a3.2 3.2 0 0 1 .853-2.924l6.486-6.486a.727.727 0 0 1 1.028 0l1.81 1.81a.308.308 0 0 0 .436.008.298.298 0 0 0 .087-.219l-.11-4.21c-.01-.398.143-.783.425-1.065z" fill="#508B00"/><path d="M32.414 23.95L13.363 43" stroke="#407400" stroke-width="3" stroke-linecap="round"/></g></g></svg>