<svg width="53" height="64" viewBox="0 0 53 64" xmlns="http://www.w3.org/2000/svg"><title>Sapphire Blank</title><g fill="none"><path d="M28.273 4.768l21.456 8.146a4.939 4.939 0 0 1 3.196 4.613v32.92a4.939 4.939 0 0 1-3.196 4.613l-21.456 8.146a4.998 4.998 0 0 1-3.546 0L3.27 55.06a4.939 4.939 0 0 1-3.196-4.613v-32.92a4.939 4.939 0 0 1 3.196-4.613l21.456-8.146a4.998 4.998 0 0 1 3.546 0z" fill="#0190CD"/><path d="M32.118 6.228l17.611 6.686a4.939 4.939 0 0 1 3.196 4.613v4.936L15.417 59.671 3.27 55.061a4.939 4.939 0 0 1-3.196-4.614V38.014L32.118 6.228z" fill="#1F9DD3"/><path d="M28.273.673L49.73 8.82a4.939 4.939 0 0 1 3.196 4.613v32.92a4.939 4.939 0 0 1-3.196 4.613l-21.456 8.146a4.998 4.998 0 0 1-3.546 0L3.27 50.965a4.939 4.939 0 0 1-3.196-4.613v-32.92A4.939 4.939 0 0 1 3.27 8.819L24.727.673a4.998 4.998 0 0 1 3.546 0z" fill="#1CB0F6"/><path d="M35.103 3.266L49.729 8.82a4.939 4.939 0 0 1 3.196 4.613v9.031L18.402 56.71 3.271 50.965a4.939 4.939 0 0 1-3.196-4.613v-8.338L35.103 3.266z" fill="#37B9F7"/><path d="M26.5 6.14L5.872 13.973v31.84L26.5 53.644l20.628-7.832v-31.84L26.5 6.141zm23.237 2.682a4.916 4.916 0 0 1 3.188 4.587v32.966a4.916 4.916 0 0 1-3.188 4.587L28.28 59.108a5.02 5.02 0 0 1-3.562 0L3.263 50.962a4.916 4.916 0 0 1-3.188-4.587V13.41a4.916 4.916 0 0 1 3.188-4.587L24.72.676a5.02 5.02 0 0 1 3.562 0l21.456 8.146z" fill="#46C4FF"/><path d="M5.872 32.264v13.548L22.88 52.27l-4.477 4.441-15.139-5.748a4.916 4.916 0 0 1-3.188-4.587v-8.36l5.797-5.751zm41.256-4.05V13.972L30.626 7.707l4.477-4.44 14.634 5.555a4.916 4.916 0 0 1 3.188 4.587v9.054l-5.797 5.75z" fill="#5CCBFF"/></g></svg>